<svg height="367pt" viewBox="0 -10 367.33244 367" width="367pt" xmlns="http://www.w3.org/2000/svg"><path d="m113.898438 298.695312c-9.445313 6.066407-20.414063 9.335938-31.640626 9.425782-45.429687 0-82.257812-55.238282-82.257812-123.386719s36.828125-98.078125 82.257812-98.078125c10.804688-.105469 21.535157 1.804688 31.640626 5.632812zm0 0" fill="#f18d46"/><path d="m164.515625 111.96875c0 3.492188-2.832031 6.324219-6.324219 6.324219-3.496094 0-6.328125-2.832031-6.328125-6.324219 0-3.496094 2.832031-6.328125 6.328125-6.328125 3.492188 0 6.324219 2.832031 6.324219 6.328125zm0 0"/><path d="m278.289062 44.40625c-107.445312-31.574219-107.445312-12.589844-139.082031-6.261719-3.839843.785157-7.730469 1.292969-11.640625 1.515625-.367187-.484375-.707031-.992187-1.015625-1.515625 9.058594-23.417969 31.851563-38.613281 56.949219-37.96875 42.902344 0 91.75 41.574219 94.789062 44.230469zm0 0" fill="#4fba6f"/><path d="m278.414062 44.46875c-50.621093 6.328125-56.949218 25.3125-94.914062 25.3125-22.402344-.464844-43.214844-11.671875-55.933594-30.121094 3.910156-.222656 7.800782-.730468 11.640625-1.519531 31.636719-6.324219 31.636719-25.308594 139.082031 6.265625.0625.0625.0625.0625.125.0625zm0 0" fill="#71c285"/><path d="m113.898438 95.089844c-3.007813 0-5.59375-2.117188-6.195313-5.0625-4.457031-19.535156-12.667969-38.015625-24.179687-54.414063-1.851563-2.464843-1.660157-5.910156.460937-8.152343 2.117187-2.238282 5.542969-2.628907 8.109375-.917969 10.75 5.671875 22.941406 8.039062 35.035156 6.800781 2.261719-.15625 4.433594.90625 5.699219 2.785156s1.433594 4.289063.441406 6.328125c-.996093 2.035157-3 3.386719-5.261719 3.542969-8.035156.597656-16.117187.039062-23.992187-1.65625 7.28125 13.589844 12.691406 28.109375 16.082031 43.152344.335938 1.644531.003906 3.355468-.921875 4.757812-.921875 1.398438-2.367187 2.375-4.011719 2.707032-.417968.085937-.84375.128906-1.265624.128906zm0 0" fill="#24ae5f"/><path d="m164.582031 304.789062c-6.105469 2.21875-12.550781 3.355469-19.046875 3.351563-45.433594 0-82.257812-55.238281-82.257812-123.386719 0-68.148437 36.824218-98.078125 82.257812-98.078125 31.386719 0 58.59375 14.238281 72.453125 45.496094zm0 0" fill="#fac176"/><path d="m183.824219 306.6875c-8.949219 1.332031-18.085938-.46875-25.855469-5.101562-15.578125-9.78125-19.683594-29.742188-19.46875-46.894532.808594-64.496094 52-124.785156 116.238281-133.734375 13.179688-1.835937 31.125-1.796875 38.855469 10.929688zm0 0" fill="#f9eab0"/><path d="m353.625 174.25c19.550781 32.902344 19.550781 91.179688-12.65625 129.84375-51.886719 62.199219-104.023438 45.304688-131.359375 28.914062zm0 0" fill="#f18d46"/><path d="m184.417969 305.738281 23.558593-37.511719 60.566407-96.457031 25.039062-39.863281c15.234375 1.273438 29.875 6.464844 42.507813 15.070312 37 28.640626 11.5625 84.59375-8.003906 115.753907-36.238282 57.71875-92.699219 87.507812-126.046876 66.550781-8.316406-5.398438-14.703124-13.304688-18.226562-22.574219zm0 0" fill="#f5efca"/><path d="m94.914062 168.914062c-3.496093 0-6.328124-2.832031-6.328124-6.324218 0-56.316406 43.851562-56.949219 44.292968-56.949219 3.496094-.007813 6.335938 2.816406 6.34375 6.3125.007813 3.492187-2.816406 6.332031-6.3125 6.339844-3.277344.046875-31.667968 1.683593-31.667968 44.292969 0 1.679687-.667969 3.289062-1.855469 4.476562-1.1875 1.183594-2.792969 1.851562-4.472657 1.851562zm0 0" fill="#f9eab0"/><path d="m268.542969 171.761719c-20.714844-13.007813-51.070313-1.960938-67.796875 24.675781-16.726563 26.636719-13.488282 58.777344 7.226562 71.785156 20.71875 13.007813 51.070313 1.960938 67.796875-24.675781 16.726563-26.636719 13.492188-58.773437-7.226562-71.785156zm0 0" fill="#cb9080"/><path d="m215.082031 238.4375c-.507812 0-1.015625-.058594-1.507812-.175781-3.394531-.828125-5.476563-4.25-4.648438-7.644531 10.496094-43.078126 37.125-44.292969 38.25-44.324219 1.683594-.074219 3.328125.535156 4.550781 1.695312 1.226563 1.160157 1.929688 2.765625 1.949219 4.453125.089844 3.453125-2.605469 6.34375-6.058593 6.492188-.960938.070312-18.386719 1.789062-26.398438 34.675781-.6875 2.832031-3.222656 4.824219-6.136719 4.828125zm0 0" fill="#f9eab0"/></svg>